<svg viewBox="0 0 28 14" version="1.1" xmlns="http://www.w3.org/2000/svg" xmlns:xlink="http://www.w3.org/1999/xlink">
    <path fill="#fff" d="M.76 13.5V.703h4.193c1.588 0 2.825.295 3.713.883.888.59 1.332 1.467 1.332 2.633 0 .61-.141 1.15-.422 1.621-.282.472-.721.828-1.319 1.068.762.164 1.326.504 1.692 1.02.366.515.55 1.11.55 1.784 0 1.248-.42 2.191-1.257 2.83-.838.639-2.04.958-3.604.958H.76zm2.971-5.493v3.208h1.907c.633 0 1.108-.125 1.424-.374.316-.249.475-.631.475-1.147 0-.545-.14-.958-.418-1.239-.278-.281-.737-.43-1.375-.448H3.73zm0-1.969H4.9c.715 0 1.248-.124 1.6-.373.351-.25.527-.62.527-1.112 0-.545-.17-.942-.51-1.191-.34-.25-.861-.374-1.564-.374H3.73v3.05zm11.569.483c-.226-.216-.87-.16-1.13-.16-.26 0-.736.215-.953.34a1.166 1.166 0 00-.484.532V13.5h-2.97V3.99h2.795l.105 1.398c.2-.498.463-.885.791-1.16a1.736 1.736 0 011.151-.414c.135 0 .242.025.347.042.106.018.265.08.348.134.23 1.908.23 2.752 0 2.531zm2.98 6.979H15.3V3.99h2.98v9.51zm0-10.802H15.3L18.28.703v1.995zm4.312 4.096h.053l1.204-2.804h3.33l-2.225 4.702 2.323 4.808h-3.331l-1.266-2.892h-.053L21.362 13.5H18.03l2.323-4.808-2.236-4.702h3.314l1.16 2.804z"/>
</svg>
