<svg viewBox="0 0 312 312" xmlns="http://www.w3.org/2000/svg">
    <path fill="currentColor" d="m79.628 269.5v-227h74.367c28.167 0 50.124 5.223 65.87 15.669 15.747 10.445 23.62 26.01 23.62 46.694 0 10.81-2.494 20.397-7.483 28.764s-12.784 14.682-23.386 18.943c13.512 2.91 23.516 8.939 30.012 18.085 6.496 9.147 9.744 19.696 9.744 31.65 0 22.138-7.431 38.872-22.294 50.201-14.864 11.33-36.17 16.994-63.922 16.994zm52.696-97.554v56.281h33.832c11.225 0 19.644-2.184 25.257-6.553 5.612-4.369 8.419-11.076 8.419-20.122 0-9.56-2.469-16.808-7.406-21.742s-13.07-7.555-24.4-7.864zm0-34.706h20.736c12.68 0 22.138-2.221 28.375-6.664 6.236-4.442 9.354-11.053 9.354-19.833 0-9.721-3.014-16.803-9.042-21.245-6.029-4.442-15.28-6.663-27.752-6.663h-21.67v54.405z" fill="#1f00c5"/>
</svg>
