<svg viewBox="0 0 850 403" version="1.1" xmlns="http://www.w3.org/2000/svg" xmlns:xlink="http://www.w3.org/1999/xlink">
    <path fill="var(--color-main)" d="M0,403 L0,0 L132.026786,0 C182.032988,0 221.013253,9.27222871 248.96875,27.8169643 C276.924247,46.3616999 290.901786,73.993864 290.901786,110.714286 C290.901786,129.904858 286.473259,146.927009 277.616071,161.78125 C268.758884,176.635491 254.919737,187.8452 236.098214,195.410714 C260.086429,200.577407 277.846669,211.279681 289.379464,227.517857 C300.91226,243.756034 306.678571,262.485013 306.678571,283.705357 C306.678571,323.009125 293.485251,352.717161 267.098214,372.830357 C240.711178,392.943553 202.884175,403 153.616071,403 L0,403 Z M93.5535714,230.008929 L93.5535714,331.035714 L153.616071,331.035714 C173.544742,331.035714 188.491022,327.114623 198.455357,319.272321 C208.419693,311.43002 213.401786,299.389962 213.401786,283.151786 C213.401786,265.990986 209.019389,252.982187 200.254464,244.125 C191.48954,235.267813 177.050696,230.562503 156.9375,230.008929 L93.5535714,230.008929 Z M93.5535714,168.008929 L130.366071,168.008929 C152.878089,168.008929 169.669587,164.087837 180.741071,156.245536 C191.812555,148.403235 197.348214,136.73222 197.348214,121.232143 C197.348214,104.071343 191.997077,91.5699797 181.294643,83.7276786 C170.592208,75.8853775 154.169754,71.9642857 132.026786,71.9642857 L93.5535714,71.9642857 L93.5535714,168.008929 Z M472.879042,183.232143 C465.765822,176.421369 445.515535,178.207669 437.32078,178.207669 C429.126026,178.207669 414.108243,184.938968 407.280828,188.90625 C400.453413,192.873532 395.379059,198.455321 392.057614,205.651786 L392.057614,403 L298.504042,403 L298.504042,103.517857 L386.521899,103.517857 L389.843328,147.526786 C396.117169,131.842183 404.420657,119.663734 414.754042,110.991071 C425.087427,102.318409 437.173616,97.9821429 451.012971,97.9821429 C455.25704,97.9821429 458.619756,98.7399371 461.941201,99.2935113 C465.262647,99.8470855 470.285137,101.806207 472.879042,103.517857 C480.136017,163.609131 480.136017,190.180559 472.879042,183.232143 Z M566.709399,403 L472.879042,403 L472.879042,103.517857 L566.709399,103.517857 L566.709399,403 Z M566.709399,62.8303571 L472.879042,62.8303571 L566.709399,0 L566.709399,62.8303571 Z M702.526478,191.8125 L704.187192,191.8125 L742.106835,103.517857 L847.008621,103.517857 L776.907038,251.598214 L850.053264,403 L745.151478,403 L705.294335,311.9375 L703.633621,311.9375 L663.776478,403 L558.874692,403 L632.043546,251.598214 L561.642549,103.517857 L665.990764,103.517857 L702.526478,191.8125 Z" id="Brix" fill="#1F00C5" fill-rule="nonzero"></path>
</svg>
